<svg width="148" height="27" viewBox="0 0 148 27" fill="none" xmlns="http://www.w3.org/2000/svg">
<g clip-path="url(#clip0_2_19)">
<path d="M0 0C13.8071 0 25 11.1929 25 25H2C0.89543 25 0 24.1046 0 23V0Z" fill="#4A6CF7"/>
<path opacity="0.5" d="M6 25C6 11.1929 17.1929 0 31 0V23C31 24.1046 30.1046 25 29 25H6Z" fill="#4A6CF7"/>
<path d="M41.2109 20V4H45.0781V16.8594H51.7344V20H41.2109ZM59.3379 20.2266C58.0775 20.2266 56.9941 19.9688 56.0879 19.4531C55.1868 18.9323 54.4915 18.2083 54.002 17.2812C53.5176 16.349 53.2754 15.2682 53.2754 14.0391C53.2754 12.8047 53.5176 11.724 54.002 10.7969C54.4915 9.86458 55.1868 9.14062 56.0879 8.625C56.9941 8.10417 58.0775 7.84375 59.3379 7.84375C60.5983 7.84375 61.679 8.10417 62.5801 8.625C63.4863 9.14062 64.1816 9.86458 64.666 10.7969C65.1556 11.724 65.4004 12.8047 65.4004 14.0391C65.4004 15.2682 65.1556 16.349 64.666 17.2812C64.1816 18.2083 63.4863 18.9323 62.5801 19.4531C61.679 19.9688 60.5983 20.2266 59.3379 20.2266ZM59.3613 17.3437C59.8197 17.3437 60.2077 17.2031 60.5254 16.9219C60.8431 16.6406 61.0853 16.25 61.252 15.75C61.4238 15.25 61.5098 14.6719 61.5098 14.0156C61.5098 13.349 61.4238 12.7656 61.252 12.2656C61.0853 11.7656 60.8431 11.375 60.5254 11.0937C60.2077 10.8125 59.8197 10.6719 59.3613 10.6719C58.8874 10.6719 58.4863 10.8125 58.1582 11.0937C57.8353 11.375 57.5879 11.7656 57.416 12.2656C57.2493 12.7656 57.166 13.349 57.166 14.0156C57.166 14.6719 57.2493 15.25 57.416 15.75C57.5879 16.25 57.8353 16.6406 58.1582 16.9219C58.4863 17.2031 58.8874 17.3437 59.3613 17.3437ZM71.1777 13.1562V20H67.3574V8H70.9902V10.2031H71.123C71.3887 9.46875 71.8418 8.89323 72.4824 8.47656C73.123 8.05469 73.8861 7.84375 74.7715 7.84375C75.6152 7.84375 76.347 8.03385 76.9668 8.41406C77.5918 8.78906 78.0762 9.3151 78.4199 9.99219C78.7689 10.6641 78.9408 11.4505 78.9355 12.3516V20H75.1152V13.1016C75.1204 12.4349 74.9512 11.9141 74.6074 11.5391C74.2689 11.1641 73.7975 10.9766 73.1934 10.9766C72.7923 10.9766 72.4382 11.0651 72.1309 11.2422C71.8288 11.4141 71.5944 11.6615 71.4277 11.9844C71.2663 12.3073 71.1829 12.6979 71.1777 13.1562ZM86.8945 24.75C85.7539 24.75 84.7773 24.5911 83.9648 24.2734C83.1523 23.9557 82.5143 23.5208 82.0508 22.9688C81.5872 22.4167 81.3086 21.7917 81.2148 21.0938L84.832 20.8906C84.8997 21.1354 85.0247 21.349 85.207 21.5313C85.3945 21.7135 85.6367 21.8542 85.9336 21.9531C86.2357 22.0521 86.5898 22.1016 86.9961 22.1016C87.6367 22.1016 88.1654 21.9453 88.582 21.6328C89.0039 21.3255 89.2148 20.7865 89.2148 20.0156V17.9062H89.082C88.931 18.276 88.7018 18.6068 88.3945 18.8984C88.0872 19.1901 87.7044 19.4193 87.2461 19.5859C86.793 19.7526 86.2721 19.8359 85.6836 19.8359C84.8086 19.8359 84.0065 19.6328 83.2773 19.2266C82.5534 18.8151 81.9727 18.1797 81.5352 17.3203C81.1029 16.4557 80.8867 15.3437 80.8867 13.9844C80.8867 12.5833 81.1107 11.4297 81.5586 10.5234C82.0065 9.61198 82.5924 8.9375 83.3164 8.5C84.0456 8.0625 84.8294 7.84375 85.668 7.84375C86.2982 7.84375 86.8372 7.95312 87.2852 8.17187C87.7383 8.38542 88.1107 8.66146 88.4023 9C88.694 9.33854 88.9154 9.6901 89.0664 10.0547H89.1758V8H92.9805V20.0469C92.9805 21.0625 92.7253 21.9193 92.2148 22.6172C91.7044 23.3151 90.9909 23.8438 90.0742 24.2031C89.1576 24.5677 88.0977 24.75 86.8945 24.75ZM87.0117 17.0547C87.4753 17.0547 87.8711 16.9323 88.1992 16.6875C88.5273 16.4427 88.7799 16.0911 88.957 15.6328C89.1341 15.1745 89.2227 14.625 89.2227 13.9844C89.2227 13.3333 89.1341 12.7734 88.957 12.3047C88.7852 11.8307 88.5326 11.4661 88.1992 11.2109C87.8711 10.9557 87.4753 10.8281 87.0117 10.8281C86.5378 10.8281 86.1367 10.9583 85.8086 11.2187C85.4805 11.4792 85.2305 11.8464 85.0586 12.3203C84.8919 12.7891 84.8086 13.3437 84.8086 13.9844C84.8086 14.625 84.8945 15.1745 85.0664 15.6328C85.2383 16.0911 85.4857 16.4427 85.8086 16.6875C86.1367 16.9323 86.5378 17.0547 87.0117 17.0547ZM99.6191 7.14062V4H113.143V7.14062H108.291V20H104.479V7.14062H99.6191ZM113.785 20V8H117.496V10.1875H117.621C117.84 9.39583 118.197 8.80729 118.691 8.42187C119.186 8.03125 119.762 7.83594 120.418 7.83594C120.595 7.83594 120.777 7.84896 120.965 7.875C121.152 7.89583 121.327 7.92969 121.488 7.97656V11.2969C121.306 11.2344 121.066 11.1849 120.77 11.1484C120.478 11.112 120.217 11.0937 119.988 11.0937C119.535 11.0937 119.126 11.1953 118.762 11.3984C118.402 11.5964 118.118 11.875 117.91 12.2344C117.707 12.5885 117.605 13.0052 117.605 13.4844V20H113.785ZM125.977 20.2031C125.211 20.2031 124.531 20.0755 123.938 19.8203C123.349 19.5599 122.883 19.1693 122.539 18.6484C122.201 18.1224 122.031 17.4635 122.031 16.6719C122.031 16.0052 122.148 15.4427 122.383 14.9844C122.617 14.526 122.94 14.1536 123.352 13.8672C123.763 13.5807 124.237 13.3646 124.773 13.2187C125.31 13.0677 125.883 12.9661 126.492 12.9141C127.174 12.8516 127.724 12.7865 128.141 12.7188C128.557 12.6458 128.859 12.5443 129.047 12.4141C129.24 12.2786 129.336 12.0885 129.336 11.8437V11.8047C129.336 11.4036 129.198 11.0937 128.922 10.875C128.646 10.6562 128.273 10.5469 127.805 10.5469C127.299 10.5469 126.893 10.6562 126.586 10.875C126.279 11.0937 126.083 11.3958 126 11.7812L122.477 11.6562C122.581 10.9271 122.849 10.276 123.281 9.70312C123.719 9.125 124.318 8.67188 125.078 8.34375C125.844 8.01042 126.763 7.84375 127.836 7.84375C128.602 7.84375 129.307 7.9349 129.953 8.11719C130.599 8.29427 131.161 8.55469 131.641 8.89844C132.12 9.23698 132.49 9.65365 132.75 10.1484C133.016 10.6432 133.148 11.2083 133.148 11.8437V20H129.555V18.3281H129.461C129.247 18.7344 128.974 19.0781 128.641 19.3594C128.313 19.6406 127.924 19.8516 127.477 19.9922C127.034 20.1328 126.534 20.2031 125.977 20.2031ZM127.156 17.7031C127.568 17.7031 127.938 17.6198 128.266 17.4531C128.599 17.2865 128.865 17.0573 129.063 16.7656C129.26 16.4687 129.359 16.125 129.359 15.7344V14.5937C129.25 14.651 129.117 14.7031 128.961 14.75C128.81 14.7969 128.643 14.8411 128.461 14.8828C128.279 14.9245 128.091 14.9609 127.898 14.9922C127.706 15.0234 127.521 15.0521 127.344 15.0781C126.984 15.1354 126.677 15.224 126.422 15.3437C126.172 15.4635 125.979 15.6198 125.844 15.8125C125.714 16 125.648 16.224 125.648 16.4844C125.648 16.8802 125.789 17.1823 126.07 17.3906C126.357 17.599 126.719 17.7031 127.156 17.7031ZM139.305 13.1562V20H135.484V8H139.117V10.2031H139.25C139.516 9.46875 139.969 8.89323 140.609 8.47656C141.25 8.05469 142.013 7.84375 142.898 7.84375C143.742 7.84375 144.474 8.03385 145.094 8.41406C145.719 8.78906 146.203 9.3151 146.547 9.99219C146.896 10.6641 147.068 11.4505 147.063 12.3516V20H143.242V13.1016C143.247 12.4349 143.078 11.9141 142.734 11.5391C142.396 11.1641 141.924 10.9766 141.32 10.9766C140.919 10.9766 140.565 11.0651 140.258 11.2422C139.956 11.4141 139.721 11.6615 139.555 11.9844C139.393 12.3073 139.31 12.6979 139.305 13.1562Z" fill="#090E34"/>
</g>
<defs>
<clipPath id="clip0_2_19">
<rect width="148" height="27" fill="white"/>
</clipPath>
</defs>
</svg>
